<?xml version="1.0" encoding="utf-8"?>
<!-- Generator: Adobe Illustrator 25.3.1, SVG Export Plug-In . SVG Version: 6.00 Build 0)  -->
<svg version="1.1"
	 id="svg1468" xmlns:cc="http://web.resource.org/cc/" xmlns:dc="http://purl.org/dc/elements/1.1/" xmlns:inkscape="http://www.inkscape.org/namespaces/inkscape" xmlns:rdf="http://www.w3.org/1999/02/22-rdf-syntax-ns#" xmlns:sodipodi="http://inkscape.sourceforge.net/DTD/sodipodi-0.dtd" xmlns:svg="http://www.w3.org/2000/svg"
	 xmlns="http://www.w3.org/2000/svg" xmlns:xlink="http://www.w3.org/1999/xlink" x="0px" y="0px" viewBox="0 0 187.5 187.5"
	 style="enable-background:new 0 0 187.5 187.5;" xml:space="preserve">
<style type="text/css">
	.st0{fill:#FFFFFF;stroke:#FFFFFF;stroke-width:3.063;stroke-linejoin:round;}
	.st1{fill:none;stroke:#000000;stroke-width:3.063;stroke-linejoin:round;}
</style>
<polygon id="rect2052_1_" class="st0" points="29.5,25.3 160.9,25.3 164.8,29 164.8,162.9 160.9,166.7 29.5,166.7 25.6,162.9 
	25.6,29 "/>
<sodipodi:namedview  bordercolor="#666666" borderopacity="1.0" id="base" inkscape:current-layer="svg1468" inkscape:cx="93.750000" inkscape:cy="93.750000" inkscape:pageopacity="0.0" inkscape:pageshadow="2" inkscape:window-height="510" inkscape:window-width="704" inkscape:window-x="66" inkscape:window-y="66" inkscape:zoom="1.8346667" pagecolor="#ffffff">
	</sodipodi:namedview>
<polygon id="rect2052" class="st1" points="31.1,26.9 159.4,26.9 163.2,30.5 163.2,161.3 159.4,165 31.1,165 27.3,161.3 27.3,30.5 
	"/>
<path id="rect2056" class="st1" d="M63.2,26.9h65.2c1.4,0,2.5,0.5,2.5,1.2v27.4l-2.5,1.2H63.2c-1.4,0-2.5-1.2-2.5-1.2V28.1
	C60.7,27.5,61.8,26.9,63.2,26.9z"/>
<path id="rect2060" class="st1" d="M62.6,26.9h48.1c1.4,0,2.5,0.5,2.5,1.2v27.4c0,0.7-1.1,1.2-2.5,1.2H62.6l-2.5-1.2V28.1
	C60.1,27.5,61.2,26.9,62.6,26.9z"/>
<rect id="rect2058" x="67.4" y="31.6" width="13.9" height="19.7"/>
<path id="rect2054" class="st1" d="M51.6,90.2h88.3l2.6,2V163c0,1.1-1.1,2-2.6,2H51.6c-1.4,0-2.6-0.9-2.6-2V92.1L51.6,90.2z"/>
<path d="M68.8,113.8c3.5,0,6.4-2.9,6.4-6.4s-2.9-6.4-6.4-6.4c-3.6,0-6.4,2.9-6.4,6.4S65.3,113.8,68.8,113.8z"/>
<path d="M81.5,143.4c-1.8,0-3.2,1.4-3.2,3.2s1.4,3.2,3.2,3.2c6.1,0,11.4-3.2,14.5-8.1c3,4.8,8.4,8.1,14.5,8.1c1.8,0,3.2-1.4,3.2-3.2
	s-1.4-3.2-3.2-3.2c-5.9,0-10.7-4.8-10.7-10.7c0-0.4-0.1-0.8-0.2-1.1c2.2-1.3,3.6-3.6,3.6-6.2c0-4-3.2-7.2-7.2-7.2s-7.2,3.2-7.2,7.2
	c0,2.7,1.5,5,3.6,6.2c-0.1,0.4-0.2,0.7-0.2,1.1C92.1,138.6,87.4,143.4,81.5,143.4z"/>
<path d="M129.1,107.3c0-3.5-2.9-6.4-6.4-6.4c-3.6,0-6.4,2.9-6.4,6.4c0,3.6,2.9,6.4,6.4,6.4C126.2,113.8,129.1,110.9,129.1,107.3z"/>
</svg>
